<svg xmlns:xlink="http://www.w3.org/1999/xlink" xmlns="http://www.w3.org/2000/svg" viewBox="0 0 369.9130434782609 68.60806949087173" preserveAspectRatio="xMidYMid meet" class="css-88gl6m" id="cdecbbac" width="369.9130434782609"  height="68.60806949087173" ><defs id="SvgjsDefs1807"></defs><g id="SvgjsG1808" featurekey="symbolFeature-0" transform="matrix(0.2624137169155834,0,0,0.2624137169155834,-1.7250809664483855,-6.717791253141824)" fill="#6639A6"><path xmlns="http://www.w3.org/2000/svg" d="M36.2,127.7l128.4,0.4c3.5,0,6.7-1.9,8.5-4.9l17.7-30.4c1.5-2.6-0.4-5.9-3.4-5.9L58.2,86.5c-3.5,0-6.7,1.9-8.5,4.9  L7.9,163.3c-1.7,3-1.8,6.8-0.1,9.8l64.2,112c1.5,2.6,5.3,2.6,6.8,0l17.7-30.4c1.7-3,1.8-6.8,0.1-9.8L32.8,133.6  C31.3,131,33.2,127.7,36.2,127.7z" fill="#6639A6"></path><path xmlns="http://www.w3.org/2000/svg" d="M224.9,73.2l-64.6,110.9c-1.7,3-1.8,6.8-0.1,9.8l17.5,30.5c1.5,2.6,5.3,2.6,6.8,0l65.1-111.7c1.7-3,1.8-6.8,0.1-9.8  l-41.3-72.1c-1.7-3-5-5-8.5-4.9L70.7,25.6c-3,0-4.9,3.3-3.4,5.9L84.7,62c1.7,3,5,5,8.5,4.9l128.4,0.4  C224.6,67.4,226.4,70.7,224.9,73.2z" fill="#6639A6"></path><g xmlns="http://www.w3.org/2000/svg" fill="#6639A6"><path d="M292.6,148.2l-35.2-0.1c-3.5,0-6.7,1.9-8.5,4.9l-64.6,110.9c-1.5,2.6-5.3,2.6-6.8,0l-63.7-111.2c-1.7-3-5-5-8.5-4.9   l-35.2-0.1c-3,0-4.9,3.3-3.4,5.9l64.2,112c1.7,3,5,5,8.5,4.9l83.2,0.2c3.5,0,6.7-1.9,8.5-4.9L296,154.1   C297.5,151.5,295.6,148.3,292.6,148.2z" fill="#6639A6"></path></g></g><g id="SvgjsG1809" featurekey="nameFeature-0" transform="matrix(1.1816783428475615,0,0,1.1816783428475615,94.34565189772421,-0.28206430314188147)" fill="#521262"><path d="M23 33.2 l2.64 0 c-1 3.68 -4.12 7.52 -10.72 7.52 c-8.12 0 -13.52 -4.76 -13.52 -13.2 c0 -7.52 5.76 -13 12.72 -13 c3.52 0 4.92 1.08 7.04 1.08 c0.6 0 1.04 0 2.6 -0.4 c0.04 2.36 0.6 4.84 1.56 7.12 l-4 0 c-1.64 -3.16 -4 -5.52 -6.84 -5.52 c-4 0 -5.2 3.92 -5.2 9.6 c0 6.24 2 11.96 7.12 11.96 c2.08 0 5.12 -1 6.6 -5.16 z M37.72 19.64 c4.48 0 10.44 2.68 10.44 10.16 c0 7.52 -5.96 10.6 -10.48 10.6 c-4.48 0 -10.44 -3.08 -10.44 -10.28 c0 -7.8 5.96 -10.48 10.48 -10.48 z M40.6 31.64 c0 -6.2 -1.28 -9.92 -3.36 -9.92 c-1.76 0 -2.4 2.8 -2.4 6.72 c0 6.04 1.28 9.92 3.36 9.92 c1.88 0 2.4 -2.84 2.4 -6.72 z M85.2 36.48 c0 1 1.08 1.32 2.68 1.48 l0 2.04 c-4.16 -0.12 -8.28 -0.12 -12.44 0 l0 -2.04 c1.48 0.04 2.64 -0.48 2.64 -1.48 l0 -8.44 c0 -2.92 -0.08 -5.24 -1.64 -5.24 c-1.76 0 -3.32 3.04 -4 4.56 l0 9.12 c0 1 1.08 1.52 2.68 1.48 l0 2.04 c-4.16 -0.12 -8.28 -0.12 -12.44 0 l0 -2.04 c1.48 0.04 2.64 -0.48 2.64 -1.48 l0 -8.44 c0 -2.92 -0.08 -5.24 -1.6 -5.24 c-1.92 0 -3.36 3.04 -4.04 4.56 l0 9.12 c0 1 1.08 1.52 2.68 1.48 l0 2.04 c-4.16 -0.12 -8.28 -0.12 -12.44 0 l0 -2.04 c1.48 -0.16 2.64 -0.48 2.64 -1.48 l0 -10.12 c0 -1.64 -1.12 -1.88 -2.6 -1.6 l0 -2.04 c4.88 -1.08 7.04 -3.4 8.28 -3.4 c1.16 0 1.64 0.76 1.44 2.08 l-0.36 3.04 c0.84 -1.56 3.12 -4.84 7.76 -4.84 c2.8 0 4.28 1.96 5.04 4.84 c0.84 -1.52 3 -4.84 7.8 -4.84 c3.24 0 5.28 2.36 5.28 6.84 l0 10.04 z M124.83999999999999 36.48 c0 1 1.08 1.32 2.68 1.48 l0 2.04 c-4.16 -0.12 -8.28 -0.12 -12.44 0 l0 -2.04 c1.48 0.04 2.64 -0.48 2.64 -1.48 l0 -8.44 c0 -2.92 -0.08 -5.24 -1.64 -5.24 c-1.76 0 -3.32 3.04 -4 4.56 l0 9.12 c0 1 1.08 1.52 2.68 1.48 l0 2.04 c-4.16 -0.12 -8.28 -0.12 -12.44 0 l0 -2.04 c1.48 0.04 2.64 -0.48 2.64 -1.48 l0 -8.44 c0 -2.92 -0.08 -5.24 -1.6 -5.24 c-1.92 0 -3.36 3.04 -4.04 4.56 l0 9.12 c0 1 1.08 1.52 2.68 1.48 l0 2.04 c-4.16 -0.12 -8.28 -0.12 -12.44 0 l0 -2.04 c1.48 -0.16 2.64 -0.48 2.64 -1.48 l0 -10.12 c0 -1.64 -1.12 -1.88 -2.6 -1.6 l0 -2.04 c4.88 -1.08 7.04 -3.4 8.28 -3.4 c1.16 0 1.64 0.76 1.44 2.08 l-0.36 3.04 c0.84 -1.56 3.12 -4.84 7.76 -4.84 c2.8 0 4.28 1.96 5.04 4.84 c0.84 -1.52 3 -4.84 7.8 -4.84 c3.24 0 5.28 2.36 5.28 6.84 l0 10.04 z M150.91999999999996 34.08 c0 1.6 1.12 1.96 2.68 1.6 l0 1.92 c-4.64 1.2 -7.4 2.96 -8.2 2.96 c-1.24 0 -1.84 -0.84 -1.68 -2.24 l0.48 -2.56 c-0.96 1.72 -3 4.96 -7 4.96 c-2.96 0 -6.56 -1.44 -6.56 -7.24 l0 -10.04 c0 -0.8 -0.32 -1.2 -1.12 -1.16 l-1.2 0.04 l0 -2 l8.16 -0.52 c0.64 -0.04 1.32 0.36 1.32 1.24 l0 11.6 c0 2.56 -0.32 4.96 1.72 4.96 s3.84 -3.92 4.28 -5.04 l0 -9.12 c0 -0.8 -0.4 -1.2 -1.2 -1.16 l-1.12 0.04 l0 -2 l8.12 -0.52 c0.56 -0.04 1.32 0.36 1.32 1.24 l0 13.04 z M177.67999999999995 36.48 c0 1 1.08 1.32 2.68 1.48 l0 2.04 c-4.2 -0.12 -8.28 -0.12 -12.48 0 l0 -2.04 c1.52 -0.04 2.64 -0.48 2.64 -1.48 l0 -9.44 c0 -2.48 0.12 -4.24 -1.68 -4.24 c-2.08 0 -3.96 3.48 -4.32 4.6 l0 9.08 c0 1 1.08 1.44 2.68 1.48 l0 2.04 c-4.16 -0.12 -8.28 -0.12 -12.44 0 l0 -2.04 c1.48 -0.16 2.64 -0.48 2.64 -1.48 l0 -10.12 c0 -1.64 -1.12 -1.88 -2.6 -1.6 l0 -2.04 c4.88 -1.08 7.04 -3.4 8.32 -3.4 c1.12 0 1.6 0.76 1.4 2.08 l-0.36 3 c1.08 -1.64 3.12 -4.8 7.08 -4.8 c2.92 0 6.44 1.28 6.44 7.04 l0 9.84 z M187.63999999999996 18.6 c-2.04 0 -3.68 -1.68 -3.68 -3.68 c0 -2.08 1.64 -3.68 3.68 -3.68 c2.08 0 3.6 1.6 3.6 3.68 c0 2 -1.52 3.68 -3.6 3.68 z M191.47999999999996 36.48 c0 1 1.08 1.32 2.68 1.48 l0 2.04 c-4.08 -0.12 -8.28 -0.12 -12.36 0 l0 -2.04 c1.4 -0.16 2.56 -0.48 2.56 -1.48 l0 -10.24 c0 -1.6 -1.12 -1.88 -2.6 -1.72 l0 -2 c5.24 -0.96 7.32 -3.08 8.76 -3.08 c0.76 0 1.2 0.52 1.2 1.24 c0 2.24 -0.24 3.88 -0.24 6.44 l0 9.36 z M208.47999999999993 38.96 c-1.12 0.84 -2.72 1.32 -4.6 1.32 c-4.2 0 -6.64 -2.32 -6.64 -6.96 l0 -11.16 l-1.4 0 c-0.52 0 -0.68 -0.24 -0.68 -0.76 l0 -0.68 c0 -0.52 0.16 -0.76 0.68 -0.76 c3.44 0 4.8 -2.44 5.12 -5.44 l3.44 0 l0 5.44 l3.32 0 c0.52 0 0.68 0.24 0.68 0.76 l0 0.68 c0 0.52 -0.16 0.76 -0.68 0.76 l-3.32 0 l0 11.92 c0 2.08 0.12 3.6 1.76 3.6 c0.64 0 1.64 -0.32 2.32 -0.92 l0 2.2 z M233.19999999999993 19.96 l0 2 l-1.44 0.12 c-1.56 0.08 -1.84 1.48 -2.08 2.04 l-9.72 23.68 c-0.28 0.68 -0.56 0.96 -1.92 0.96 c-1.64 0 -2.08 -0.28 -1.72 -0.96 c0.6 -0.92 3.8 -5.48 3.8 -6.48 c0 -1.24 -5.16 -11.52 -7.92 -17.2 c-0.32 -0.68 -0.72 -1.88 -1.6 -2.04 l-1.2 -0.12 l0 -2 c3.72 0.12 8.04 0.12 11.88 0 l0 2 l-1.08 0.12 c-1.08 0.16 -1.24 1.4 -0.88 2.04 l4.4 8.76 l3.64 -8.76 c0.32 -0.72 0 -1.96 -1.6 -2.04 l-1.56 -0.12 l0 -2 c2.8 0.12 5.28 0.12 9 0 z" fill="#521262"></path></g></svg>